<?xml version="1.0" encoding="UTF-8"?>
<svg id="Layer_2" xmlns="http://www.w3.org/2000/svg" viewBox="0 0 1599.24 638.7">
  <defs>
    <style>
      .cls-1 {
        fill: #e8d8c4;
      }

      .cls-2 {
        fill: none;
        stroke: #e8d8c4;
        stroke-miterlimit: 10;
        stroke-width: 4px;
      }
    </style>
  </defs>
  <g id="Layer_1-2" data-name="Layer_1">
    <g>
      <g>
        <path class="cls-1" d="M573.01,586.88h23.38c11.18,0,18.61,6.28,18.61,16.5s-6.96,16.43-18.18,16.43h-15.9v18.27h-7.92v-51.2ZM596.46,612.76c6.45,0,10.45-3.44,10.45-9.38s-4-9.37-10.45-9.37h-15.53v18.75h15.53Z"/>
        <path class="cls-1" d="M698.86,584.84l28.76,53.28h-8.51l-5.93-11.25h-28.83l-6,11.26h-8.69l29.21-53.29ZM709.64,620.27l-10.87-20.57-10.92,20.57h21.79Z"/>
        <path class="cls-1" d="M824.77,638.09l-24.48-22.6v22.6h-7.92v-51.2h24.02c11.18,0,18.67,5.47,18.67,15.42s-6.85,15.17-18.07,15.17h-4.27l23.39,20.62h-11.33ZM800.29,610.61h16.71c5.9,0,9.96-2.62,9.96-8.3s-4.06-8.29-9.96-8.29h-16.71v16.6Z"/>
        <path class="cls-1" d="M904.85,586.88h7.92v51.2h-7.92v-51.2Z"/>
        <path class="cls-1" d="M1004.32,638.7c-8.32.03-16.95-2.32-22.92-6.08l4.27-6.16c5.47,3.28,12.46,5.13,18.98,5.08,7.15-.06,11.99-2.78,12.09-7.45.1-4.3-2.78-5.89-10.29-7.62l-6.76-1.54c-10.96-2.49-16.03-7.06-16.07-14.59-.04-8.31,8.33-13.99,19.62-14.05,7.45-.04,14.68,2.21,19.98,5.48l-4.02,6.15c-4.52-2.77-9.7-4.51-15.23-4.47-7.05.07-11.95,2.57-11.9,7.12.04,3.96,3.21,5.92,9.93,7.45l7.22,1.63c10.89,2.45,15.66,6.62,15.7,14.42.04,8.69-8.37,14.6-20.6,14.63h0Z"/>
      </g>
      <path class="cls-2" d="M2.08,316.53h109.92c.84,23.73,7.94,39.39,21.29,47.02,13.34,7.62,31.87,11.44,55.6,11.44s41.62-3.59,54.96-10.8c13.34-7.2,20.02-21.18,20.02-41.94,0-23.72-13.34-37.91-40.03-42.57-26.69-4.66-55.82-9.74-87.37-15.25-31.56-5.5-60.68-16.41-87.37-32.72-26.69-16.3-40.03-47.75-40.03-94.36S24.53,54.96,55.46,33.77C86.37,12.59,128.74,2,182.54,2s95.41,10.17,127.4,30.5c31.98,20.33,48.61,54.44,49.88,102.3h-109.92c-.85-19.91-7.31-33.14-19.38-39.71-12.07-6.56-28.07-9.85-47.97-9.85-21.6,0-38.66,3.5-51.15,10.48-12.5,6.99-18.75,20.65-18.75,40.98,0,22.46,13.34,36.12,40.03,40.98,26.69,4.88,55.81,10.07,87.37,15.57,31.55,5.51,60.68,16.2,87.37,32.09s40.03,45.86,40.03,89.91c0,51.69-15.57,88.43-46.7,110.24-31.13,21.82-75.09,32.72-131.85,32.72s-102.62-10.69-135.02-32.09c-32.41-21.38-49.67-57.92-51.79-109.61Z"/>
      <path class="cls-2" d="M625.41,449.32l-139.79-304.99v304.99h-99.76V10.9h146.14l140.42,305.63V10.9h99.76v438.43h-146.78Z"/>
      <path class="cls-2" d="M920.62,101.76h-127.72V10.9h364.09v90.86h-128.99v347.57h-107.38V101.76Z"/>
      <path class="cls-2" d="M1172.68,10.9h113.1v354.55L1498.64,10.9h97.22l-240.82,438.43h-181.38l-.98-438.43Z"/>
    </g>
  </g>
</svg>