<?xml version="1.0" encoding="UTF-8"?>
<svg id="Layer_2" xmlns="http://www.w3.org/2000/svg" viewBox="0 0 1920 1080">
  <defs>
    <style>
      .cls-1 {
        fill: none;
      }

      .cls-1, .cls-2 {
        stroke: #e8d8c4;
        stroke-miterlimit: 10;
        stroke-width: 3px;
      }

      .cls-2 {
        fill: #e8d8c4;
      }
    </style>
  </defs>
  <g>
    <path class="cls-2" d="M693.19,855.46h27.65c13.22,0,22.01,7.43,22.01,19.51s-8.23,19.43-21.49,19.43h-18.8v21.6h-9.37v-60.54ZM720.92,886.06c7.62,0,12.35-4.07,12.35-11.09s-4.73-11.08-12.35-11.08h-18.37v22.17h18.37Z"/>
    <path class="cls-2" d="M842,853.05l34.01,63.01h-10.07l-7.02-13.31h-34.09l-7.1,13.31h-10.28l34.54-63.01ZM854.76,894.95l-12.85-24.33-12.91,24.33h25.77Z"/>
    <path class="cls-2" d="M990.9,916.01l-28.95-26.72v26.72h-9.37v-60.54h28.41c13.22,0,22.07,6.47,22.07,18.24s-8.1,17.93-21.37,17.93h-5.05l27.66,24.38h-13.4ZM961.95,883.51h19.76c6.98,0,11.78-3.1,11.78-9.82s-4.8-9.81-11.78-9.81h-19.76v19.62Z"/>
    <path class="cls-2" d="M1085.59,855.46h9.37v60.54h-9.37v-60.54Z"/>
    <path class="cls-2" d="M1203.21,916.74c-9.84.03-20.04-2.74-27.1-7.19l5.05-7.28c6.47,3.88,14.73,6.06,22.45,6,8.46-.07,14.18-3.29,14.3-8.81.12-5.08-3.29-6.96-12.17-9.01l-8-1.83c-12.96-2.94-18.95-8.34-19-17.25-.05-9.83,9.85-16.54,23.2-16.61,8.81-.05,17.35,2.61,23.62,6.48l-4.75,7.27c-5.34-3.27-11.47-5.33-18.01-5.29-8.33.08-14.13,3.04-14.07,8.42.05,4.68,3.79,6.99,11.75,8.81l8.54,1.93c12.88,2.9,18.52,7.82,18.56,17.05.05,10.28-9.9,17.26-24.36,17.31h0Z"/>
  </g>
  <path class="cls-1" d="M18.08,535.77h129.98c1,28.06,9.39,46.58,25.17,55.6,15.78,9.02,37.68,13.52,65.74,13.52s49.21-4.25,64.99-12.77c15.78-8.51,23.67-25.04,23.67-49.59,0-28.05-15.78-44.82-47.34-50.34-31.56-5.51-66-11.52-103.31-18.03-37.32-6.5-71.75-19.41-103.31-38.7-31.56-19.28-47.34-56.47-47.34-111.58s18.28-97.42,54.85-122.47c36.56-25.04,86.65-37.57,150.27-37.57s112.82,12.02,150.65,36.07c37.81,24.04,57.48,64.37,58.98,120.97h-129.98c-1.01-23.54-8.64-39.19-22.92-46.96-14.28-7.76-33.19-11.65-56.73-11.65-25.55,0-45.72,4.13-60.48,12.4-14.78,8.26-22.17,24.42-22.17,48.46,0,26.56,15.78,42.71,47.34,48.46,31.56,5.76,65.99,11.9,103.31,18.41,37.31,6.52,71.76,19.16,103.31,37.94,31.56,18.78,47.34,54.23,47.34,106.32,0,61.12-18.41,104.57-55.22,130.36-36.82,25.8-88.79,38.69-155.91,38.69s-121.34-12.64-159.66-37.94c-38.32-25.29-58.74-68.49-61.24-129.61Z"/>
  <path class="cls-1" d="M755.16,692.8l-165.3-360.65v360.65h-117.96V174.37h172.81l166.05,361.4V174.37h117.96v518.44h-173.56Z"/>
  <path class="cls-1" d="M1104.24,281.81h-151.02v-107.44h430.53v107.44h-152.52v410.99h-126.98v-410.99Z"/>
  <path class="cls-1" d="M1402.29,174.37h133.74v419.26l251.7-419.26h114.96l-284.76,518.44h-214.48l-1.16-518.44Z"/>
</svg>